<?xml version="1.0" encoding="utf-8"?>
<!-- Generator: Adobe Illustrator 25.0.1, SVG Export Plug-In . SVG Version: 6.00 Build 0)  -->
<svg version="1.1" id="Flat" xmlns="http://www.w3.org/2000/svg" xmlns:xlink="http://www.w3.org/1999/xlink" x="0px" y="0px"
	 viewBox="0 0 800 800" style="enable-background:new 0 0 800 800;" xml:space="preserve">
<style type="text/css">
	.st0{fill:#424252;}
</style>
<path class="st0" d="M400,262.5c-75.9,0-137.5,61.6-137.5,137.5S324.1,537.5,400,537.5S537.5,475.9,537.5,400
	C537.4,324.1,475.9,262.6,400,262.5z M400,512.5c-62.1,0-112.5-50.4-112.5-112.5S337.9,287.5,400,287.5S512.5,337.9,512.5,400
	C512.4,462.1,462.1,512.4,400,512.5z M537.5,100h-275c-89.7,0.1-162.4,72.8-162.5,162.5v275c0.1,89.7,72.8,162.4,162.5,162.5h275
	c89.7-0.1,162.4-72.8,162.5-162.5v-275C699.9,172.8,627.2,100.1,537.5,100z M675,537.5c-0.1,75.9-61.6,137.4-137.5,137.5h-275
	c-75.9-0.1-137.4-61.6-137.5-137.5v-275c0.1-75.9,61.6-137.4,137.5-137.5h275c75.9,0.1,137.4,61.6,137.5,137.5V537.5z M587.5,237.5
	c0,13.8-11.2,25-25,25s-25-11.2-25-25s11.2-25,25-25C576.3,212.5,587.5,223.7,587.5,237.5z"/>
</svg>
