<?xml version="1.0" standalone="no"?>
<!DOCTYPE svg PUBLIC "-//W3C//DTD SVG 20010904//EN"
 "http://www.w3.org/TR/2001/REC-SVG-20010904/DTD/svg10.dtd">
<svg version="1.0" xmlns="http://www.w3.org/2000/svg"
 width="700.000000pt" height="700.000000pt" viewBox="0 0 700.000000 700.000000"
 preserveAspectRatio="xMidYMid meet">
<metadata>
Created by potrace 1.14, written by Peter Selinger 2001-2017
</metadata>
<g transform="translate(0.000000,700.000000) scale(0.100000,-0.100000)"
fill="#000000" stroke="none">
<path d="M3316 6991 l-28 -6 6 -560 c4 -308 8 -582 10 -610 2 -27 7 -111 10
-185 4 -74 9 -157 11 -185 2 -27 6 -86 10 -130 7 -103 14 -197 20 -260 3 -27
7 -77 10 -110 3 -33 8 -78 11 -100 2 -22 7 -62 9 -90 3 -27 10 -86 15 -130 6
-44 13 -98 16 -120 4 -37 11 -86 19 -145 2 -14 6 -43 10 -65 3 -23 7 -51 10
-64 2 -12 9 -55 14 -94 6 -40 13 -82 15 -93 2 -12 7 -37 10 -55 9 -54 16 -89
31 -169 8 -41 17 -87 20 -102 26 -138 97 -432 141 -584 8 -28 16 -60 19 -70 2
-11 19 -68 38 -129 20 -60 47 -146 61 -190 23 -72 92 -307 101 -345 75 -303
91 -372 101 -425 2 -16 9 -46 14 -65 5 -19 11 -48 14 -65 3 -16 15 -79 26
-140 26 -137 54 -308 74 -445 13 -89 22 -159 51 -385 10 -80 15 -125 20 -180
3 -33 8 -76 10 -95 2 -19 7 -64 10 -100 3 -36 8 -83 10 -105 2 -22 7 -83 11
-135 7 -96 11 -148 13 -163 2 -13 52 -3 180 32 150 42 152 43 146 89 -2 20 -7
78 -10 127 -4 50 -8 101 -10 115 -2 14 -7 66 -11 115 -3 50 -8 99 -10 109 -2
11 -6 47 -9 80 -3 34 -7 77 -10 96 -2 19 -9 76 -15 125 -6 50 -13 106 -16 125
-9 63 -13 94 -19 145 -6 45 -40 264 -51 325 -2 14 -7 41 -10 60 -5 35 -33 187
-40 225 -2 11 -6 31 -9 45 -10 55 -66 316 -71 332 -3 10 -7 30 -10 45 -6 31
-61 245 -94 363 -11 41 -47 158 -79 260 -93 294 -141 469 -177 635 -9 39 -17
77 -19 85 -6 27 -34 155 -38 180 -3 14 -13 66 -22 115 -10 50 -19 99 -21 110
-4 29 -33 206 -38 230 -2 11 -7 43 -10 70 -6 51 -14 110 -21 155 -3 14 -7 48
-10 75 -3 28 -8 68 -11 90 -3 22 -7 51 -9 65 -2 14 -7 59 -11 100 -3 41 -7 86
-9 100 -3 30 -13 134 -20 210 -3 30 -8 88 -10 129 -3 40 -7 96 -10 125 -2 28
-6 105 -10 171 -3 66 -8 143 -10 170 -9 110 -18 500 -20 870 -2 215 -3 393 -4
397 -1 8 -274 7 -315 -1z"/>
<path d="M4028 6942 c-6 -23 -1 -856 6 -1002 11 -223 15 -291 31 -535 5 -68
15 -193 20 -245 2 -19 6 -66 9 -105 4 -38 8 -86 11 -105 2 -19 7 -60 10 -90 3
-30 12 -104 20 -165 8 -60 17 -132 21 -160 12 -101 48 -325 89 -560 3 -16 14
-73 25 -125 10 -52 21 -106 24 -120 8 -48 47 -215 73 -315 14 -55 26 -104 27
-110 23 -95 82 -293 164 -555 121 -385 194 -668 266 -1030 23 -116 89 -490
100 -570 3 -19 12 -82 20 -140 8 -58 18 -127 21 -155 3 -27 8 -63 10 -80 5
-36 13 -102 35 -315 7 -58 13 -106 14 -108 4 -3 171 84 238 125 52 32 56 37
53 66 -2 18 -6 59 -10 92 -9 95 -45 378 -50 395 -2 8 -6 38 -10 65 -5 43 -16
115 -30 205 -2 14 -7 45 -10 70 -42 299 -188 950 -285 1265 -31 99 -110 355
-136 435 -47 149 -152 556 -169 659 -3 19 -7 37 -9 40 -2 3 -7 22 -10 41 -6
36 -8 50 -26 135 -14 68 -19 96 -25 125 -9 55 -54 328 -60 375 -4 28 -9 59
-11 70 -4 28 -13 102 -20 155 -3 25 -7 56 -9 70 -2 14 -7 52 -10 85 -3 33 -8
71 -10 85 -2 14 -7 57 -11 95 -3 39 -7 86 -9 105 -2 19 -6 71 -10 115 -3 44
-8 96 -10 115 -3 19 -7 78 -10 130 -3 52 -8 131 -11 175 -16 239 -26 583 -28
948 -1 253 -4 300 -16 307 -8 4 -62 17 -120 28 -173 33 -167 33 -172 14z"/>
<path d="M2875 6943 c-236 -51 -301 -66 -308 -72 -17 -16 -3 -1046 18 -1366 2
-33 7 -100 10 -150 5 -85 9 -147 21 -290 7 -94 23 -273 29 -325 10 -92 16
-139 21 -180 3 -25 7 -61 9 -80 10 -92 24 -198 30 -230 3 -14 7 -45 10 -70 3
-25 12 -85 21 -135 8 -49 17 -103 20 -120 2 -16 11 -64 19 -105 8 -41 17 -91
20 -110 4 -19 11 -55 16 -80 6 -25 13 -58 16 -75 22 -133 108 -453 208 -775
81 -258 164 -580 190 -730 3 -19 8 -43 11 -52 3 -9 7 -27 9 -40 3 -13 11 -57
20 -98 8 -41 24 -131 35 -200 12 -69 23 -136 25 -150 3 -14 7 -47 10 -75 3
-27 8 -57 10 -65 2 -8 7 -40 10 -70 3 -30 8 -62 10 -70 2 -8 7 -44 10 -80 3
-36 8 -72 10 -80 3 -8 7 -42 10 -75 3 -33 8 -79 10 -103 3 -23 7 -61 9 -85 3
-23 8 -67 11 -97 9 -88 14 -149 20 -235 4 -44 8 -98 10 -120 3 -35 12 -169 20
-305 l2 -45 94 1 c126 2 227 6 256 12 23 4 24 6 18 91 -13 202 -27 386 -40
526 -3 28 -7 77 -10 110 -3 33 -8 71 -10 85 -2 14 -7 54 -10 90 -3 36 -8 81
-10 100 -3 19 -7 53 -10 75 -3 22 -7 58 -10 80 -5 43 -15 115 -20 155 -6 37
-43 289 -50 335 -3 22 -15 85 -25 140 -10 55 -21 116 -24 135 -10 64 -74 366
-106 496 -40 162 -76 288 -151 529 -33 105 -71 233 -85 285 -25 94 -106 443
-118 510 -3 19 -8 46 -11 60 -8 38 -54 310 -60 353 -3 20 -7 54 -10 75 -3 20
-7 51 -10 67 -8 52 -15 105 -20 153 -3 26 -7 61 -10 77 -2 17 -7 57 -10 90 -3
33 -8 71 -10 85 -4 27 -13 113 -20 200 -3 30 -7 75 -10 100 -2 25 -7 88 -11
140 -3 52 -8 113 -9 135 -3 34 -12 190 -20 345 -10 190 -18 549 -20 890 -2
223 -3 408 -4 413 -1 7 -22 8 -56 0z"/>
<path d="M2120 6716 c-52 -23 -140 -65 -195 -92 l-100 -50 1 -170 c1 -177 12
-642 19 -779 8 -177 16 -333 20 -380 2 -27 7 -93 10 -145 3 -52 8 -115 10
-140 2 -25 7 -81 10 -125 3 -44 7 -91 10 -105 2 -14 7 -56 10 -95 3 -38 8 -81
10 -95 2 -14 6 -52 10 -85 8 -82 15 -135 20 -165 2 -14 7 -49 10 -79 4 -30 8
-61 10 -70 1 -9 6 -41 10 -71 4 -30 9 -64 11 -75 2 -10 6 -37 9 -60 5 -35 15
-94 32 -185 45 -254 123 -584 183 -780 85 -277 112 -369 146 -505 20 -77 38
-149 40 -160 2 -11 15 -74 28 -140 29 -137 63 -321 71 -380 3 -22 10 -62 15
-90 5 -27 11 -71 15 -96 3 -25 8 -57 10 -70 2 -13 6 -46 10 -74 6 -47 8 -62
19 -147 3 -18 8 -60 11 -93 3 -33 8 -71 10 -85 2 -14 7 -52 10 -85 3 -33 8
-76 10 -95 3 -19 7 -66 10 -105 3 -38 8 -90 10 -115 6 -50 11 -117 20 -235 3
-44 7 -109 10 -145 2 -36 7 -105 11 -155 3 -49 8 -93 10 -96 2 -4 23 -10 46
-14 24 -4 52 -10 63 -12 133 -25 187 -34 230 -39 27 -4 54 -9 59 -11 7 -5 2
172 -9 302 -3 28 -7 91 -10 140 -9 133 -13 181 -30 365 -2 25 -7 74 -10 110
-3 36 -8 83 -11 105 -2 22 -7 58 -9 80 -8 71 -15 129 -20 170 -2 22 -14 108
-25 190 -12 83 -23 166 -26 185 -4 35 -42 264 -50 304 -2 12 -9 48 -15 81 -18
102 -50 256 -71 345 -11 47 -21 92 -23 100 -12 58 -61 238 -96 351 -99 324
-179 622 -205 769 -3 14 -16 81 -29 150 -13 69 -27 145 -31 170 -3 25 -8 53
-10 63 -3 18 -12 76 -33 227 -5 36 -12 90 -16 120 -3 30 -8 66 -10 80 -2 14
-7 57 -10 95 -3 39 -8 81 -10 95 -3 14 -7 57 -10 95 -4 39 -8 87 -11 109 -4
37 -7 69 -19 236 -12 163 -14 189 -21 305 -7 133 -9 169 -19 430 -8 192 -13
485 -14 783 -1 100 -4 182 -8 181 -5 0 -51 -20 -103 -43z"/>
<path d="M4759 6723 c-4 -149 7 -713 16 -833 1 -25 6 -101 10 -170 3 -69 8
-145 10 -170 2 -24 6 -83 10 -130 3 -47 8 -98 10 -115 2 -16 6 -68 10 -115 4
-47 8 -96 10 -110 5 -32 14 -112 20 -174 2 -26 7 -66 10 -87 3 -21 7 -56 10
-76 15 -119 47 -337 65 -444 11 -68 23 -140 26 -159 7 -44 56 -296 69 -350 3
-14 8 -38 11 -55 3 -16 11 -55 19 -85 8 -30 16 -66 19 -80 5 -31 47 -197 76
-305 26 -97 105 -358 155 -515 64 -195 144 -476 195 -680 41 -166 136 -617
154 -730 3 -19 8 -46 10 -60 13 -67 17 -90 27 -155 6 -38 12 -81 15 -95 2 -14
9 -58 15 -98 17 -118 17 -118 69 -70 146 133 200 191 195 212 -3 11 -16 89
-30 171 -27 164 -33 198 -40 235 -3 14 -7 36 -10 50 -3 14 -14 70 -25 125 -11
55 -22 109 -24 120 -18 94 -126 535 -162 663 -25 89 -91 302 -144 467 -43 135
-85 270 -96 314 -2 9 -18 68 -35 131 -44 162 -45 165 -90 365 -56 249 -100
478 -135 700 -2 17 -6 41 -9 55 -4 26 -6 35 -25 176 -6 44 -12 89 -14 100 -2
10 -7 50 -11 89 -4 38 -8 72 -10 75 -1 3 -6 41 -9 85 -4 44 -9 91 -11 105 -2
14 -7 57 -10 95 -3 39 -7 88 -10 110 -2 22 -6 74 -10 115 -3 41 -7 99 -10 128
-2 29 -7 107 -10 175 -4 67 -8 142 -10 167 -4 41 -15 446 -19 662 -1 49 -6 92
-11 97 -11 10 -205 94 -242 106 -21 6 -23 3 -24 -32z"/>
<path d="M1409 6304 c-239 -181 -315 -255 -311 -304 0 -3 3 -102 7 -220 4
-118 8 -244 10 -280 2 -36 7 -126 10 -200 4 -74 8 -151 10 -170 2 -19 6 -80
10 -135 3 -55 8 -118 9 -140 2 -22 7 -76 10 -120 4 -44 9 -98 11 -120 2 -22 7
-67 10 -100 14 -141 16 -161 20 -185 3 -14 7 -50 10 -80 2 -30 7 -66 9 -80 2
-14 8 -52 12 -85 4 -33 8 -62 9 -65 0 -3 5 -32 9 -65 4 -32 10 -68 12 -80 2
-11 6 -36 9 -55 3 -19 11 -71 19 -115 9 -44 18 -93 21 -110 9 -55 16 -88 31
-160 15 -66 17 -79 28 -130 16 -77 67 -262 121 -440 58 -191 100 -335 110
-382 2 -10 15 -70 30 -133 14 -63 33 -148 41 -190 8 -41 16 -86 19 -100 12
-65 15 -78 20 -115 3 -22 7 -47 10 -55 2 -8 6 -37 10 -65 3 -27 8 -59 10 -70
3 -11 7 -38 10 -60 12 -84 37 -271 40 -295 2 -22 11 -99 20 -180 2 -14 6 -54
9 -90 4 -36 9 -85 11 -110 8 -81 14 -144 20 -220 3 -41 8 -95 10 -120 2 -25 7
-88 10 -140 9 -153 2 -141 123 -198 153 -72 303 -133 313 -127 4 3 7 27 4 53
-2 26 -6 97 -10 157 -8 141 -14 227 -20 290 -2 28 -7 88 -10 135 -4 47 -8 96
-10 110 -2 14 -6 59 -10 100 -3 41 -8 91 -10 110 -2 19 -7 60 -10 90 -3 30
-10 89 -15 130 -5 41 -12 100 -16 130 -18 159 -47 366 -70 500 -31 188 -49
285 -75 406 -11 55 -22 108 -25 119 -2 11 -11 49 -20 85 -9 36 -18 74 -20 85
-2 11 -26 92 -53 180 -74 239 -130 440 -146 524 -2 9 -15 72 -29 141 -26 123
-69 372 -81 460 -3 25 -8 56 -10 70 -2 14 -7 45 -10 70 -3 25 -7 54 -9 65 -2
12 -7 52 -10 90 -4 39 -9 84 -11 100 -6 41 -13 107 -21 190 -3 39 -7 86 -9
105 -2 19 -6 73 -10 120 -3 47 -8 105 -10 130 -7 80 -15 193 -20 290 -19 387
-24 520 -31 849 -3 157 -7 287 -8 289 -2 1 -54 -37 -117 -84z"/>
<path d="M5495 6268 c2 -57 7 -168 10 -248 10 -230 20 -409 29 -505 2 -16 6
-68 10 -115 4 -47 9 -101 11 -120 2 -19 7 -60 10 -90 3 -30 8 -71 10 -90 2
-19 7 -60 10 -90 7 -69 18 -152 60 -456 3 -17 12 -76 21 -130 9 -55 18 -112
21 -129 43 -272 193 -917 278 -1200 20 -66 41 -136 47 -155 5 -19 18 -60 28
-90 114 -335 236 -776 321 -1163 26 -119 35 -145 45 -135 25 25 174 280 174
297 0 10 -20 98 -46 197 -25 98 -47 186 -49 194 -28 111 -103 361 -200 665
-78 245 -121 393 -173 595 -37 145 -114 481 -127 560 -3 19 -12 67 -20 105
-12 59 -24 126 -61 345 -9 52 -53 367 -59 420 -4 30 -8 66 -10 80 -5 35 -14
117 -20 170 -23 235 -22 216 -40 445 -10 128 -23 359 -26 472 l-2 83 -41 35
c-61 52 -58 50 -133 104 -38 28 -73 51 -76 51 -4 0 -5 -46 -2 -102z"/>
<path d="M815 5746 c-6 -7 -55 -73 -111 -147 -109 -146 -198 -281 -263 -401
l-42 -77 6 -108 c4 -59 8 -124 10 -143 2 -19 6 -80 10 -135 3 -55 8 -116 10
-135 2 -19 7 -64 10 -100 3 -36 7 -83 10 -105 2 -22 7 -67 10 -100 3 -33 8
-71 10 -85 3 -14 7 -52 10 -85 4 -33 8 -71 10 -85 2 -14 9 -61 15 -106 6 -44
12 -89 14 -100 2 -10 6 -40 10 -65 19 -128 45 -267 82 -439 39 -179 34 -158
118 -445 36 -121 69 -238 75 -260 5 -22 19 -78 31 -125 19 -78 82 -391 95
-470 9 -59 24 -163 30 -205 3 -22 7 -53 10 -70 3 -16 7 -52 10 -80 3 -27 8
-61 10 -75 2 -14 7 -47 10 -75 3 -27 7 -63 9 -80 3 -16 7 -66 11 -110 4 -44 8
-87 10 -95 1 -8 6 -49 10 -90 15 -166 9 -149 82 -219 119 -113 387 -321 412
-321 7 0 9 12 7 28 -3 15 -8 72 -11 127 -3 55 -8 120 -10 145 -2 25 -7 83 -10
130 -3 47 -8 101 -10 120 -2 19 -7 64 -10 100 -3 36 -8 81 -10 100 -2 19 -7
58 -10 85 -3 28 -8 70 -11 95 -3 25 -7 63 -9 85 -4 36 -13 105 -20 160 -2 11
-6 43 -10 70 -8 59 -62 407 -71 450 -3 17 -12 64 -20 105 -9 41 -17 84 -19 95
-11 67 -75 311 -130 495 -57 192 -114 412 -130 503 -4 17 -15 77 -25 132 -22
117 -33 187 -45 270 -2 17 -8 62 -14 100 -5 39 -13 97 -16 130 -4 33 -8 67
-10 75 -2 8 -7 47 -11 85 -4 39 -8 81 -9 95 -2 14 -6 54 -9 90 -6 60 -8 86
-21 225 -2 28 -7 88 -10 135 -3 47 -8 105 -10 130 -2 25 -7 104 -10 175 -3 72
-8 159 -10 195 -2 36 -7 142 -10 235 -4 94 -10 173 -13 177 -4 4 -12 2 -17 -6z"/>
<path d="M6265 5600 c2 -25 7 -76 10 -115 7 -82 14 -154 20 -210 3 -22 7 -69
11 -105 3 -36 7 -76 10 -90 2 -14 8 -61 14 -105 15 -119 16 -128 40 -285 20
-136 59 -366 96 -560 60 -315 192 -841 288 -1145 95 -300 121 -375 126 -375 8
0 44 161 70 306 l18 107 -34 121 c-121 423 -194 722 -259 1061 -3 17 -13 66
-21 110 -18 97 -70 402 -78 465 -4 25 -11 77 -16 115 -5 39 -12 90 -15 115 -3
25 -7 61 -10 80 -3 19 -7 60 -10 90 -3 30 -10 72 -16 92 -9 37 -162 274 -218
338 l-30 35 4 -45z"/>
<path d="M147 4498 c-30 -101 -58 -214 -82 -329 -3 -14 -26 -166 -40 -264 -25
-168 -25 -655 0 -807 2 -13 6 -45 10 -73 3 -27 10 -75 15 -105 5 -30 12 -73
16 -94 3 -22 10 -51 16 -65 5 -14 9 -28 8 -31 -3 -17 56 -232 101 -365 65
-191 199 -486 274 -605 14 -22 25 -42 25 -45 0 -8 193 -292 220 -325 l21 -25
-6 82 c-3 46 -8 91 -9 100 -2 10 -7 50 -10 88 -4 39 -9 81 -11 95 -2 14 -6 52
-10 85 -3 33 -8 71 -10 85 -3 14 -7 48 -9 75 -3 28 -8 61 -10 75 -3 14 -8 43
-11 65 -14 98 -37 244 -46 290 -5 28 -16 86 -25 130 -9 44 -18 91 -20 105 -14
74 -50 213 -94 360 -60 204 -98 350 -125 495 -10 52 -45 254 -50 290 -3 23 -7
50 -9 60 -2 11 -7 47 -11 80 -4 33 -9 69 -10 80 -2 11 -6 43 -9 70 -4 28 -8
66 -11 85 -2 19 -7 60 -9 90 -3 30 -8 82 -12 115 -3 33 -7 80 -9 105 -4 52
-16 144 -20 148 -1 1 -18 -53 -38 -120z"/>
</g>
</svg>
